<mxfile host="app.diagrams.net" agent="Mozilla/5.0 (Windows NT 10.0; Win64; x64) AppleWebKit/537.36 (KHTML, like Gecko) Chrome/134.0.0.0 Safari/537.36" version="26.2.2">
  <diagram name="Page-1" id="w9GNZ5u1jD0qXQI70O3R">
    <mxGraphModel dx="4152" dy="1717" grid="1" gridSize="10" guides="1" tooltips="1" connect="1" arrows="1" fold="1" page="1" pageScale="1" pageWidth="1169" pageHeight="827" math="0" shadow="0">
      <root>
        <mxCell id="0" />
        <mxCell id="1" parent="0" />
        <mxCell id="vDZOlY3wyJ9qln-_VzCb-3" value="" style="edgeStyle=orthogonalEdgeStyle;rounded=0;orthogonalLoop=1;jettySize=auto;html=1;fontSize=16;" edge="1" parent="1" source="vDZOlY3wyJ9qln-_VzCb-1" target="vDZOlY3wyJ9qln-_VzCb-2">
          <mxGeometry relative="1" as="geometry" />
        </mxCell>
        <mxCell id="vDZOlY3wyJ9qln-_VzCb-1" value="start" style="strokeWidth=2;html=1;shape=mxgraph.flowchart.start_1;whiteSpace=wrap;fillColor=#dae8fc;strokeColor=#6c8ebf;fontSize=16;" vertex="1" parent="1">
          <mxGeometry x="560" y="40" width="100" height="60" as="geometry" />
        </mxCell>
        <mxCell id="vDZOlY3wyJ9qln-_VzCb-5" value="" style="edgeStyle=orthogonalEdgeStyle;rounded=0;orthogonalLoop=1;jettySize=auto;html=1;fontSize=16;" edge="1" parent="1" source="vDZOlY3wyJ9qln-_VzCb-2" target="vDZOlY3wyJ9qln-_VzCb-4">
          <mxGeometry relative="1" as="geometry" />
        </mxCell>
        <mxCell id="vDZOlY3wyJ9qln-_VzCb-2" value="splash screen" style="whiteSpace=wrap;html=1;fillColor=#fff2cc;strokeColor=#d6b656;strokeWidth=2;fontSize=16;" vertex="1" parent="1">
          <mxGeometry x="550" y="120" width="120" height="60" as="geometry" />
        </mxCell>
        <mxCell id="vDZOlY3wyJ9qln-_VzCb-157" value="" style="edgeStyle=orthogonalEdgeStyle;rounded=0;orthogonalLoop=1;jettySize=auto;html=1;" edge="1" parent="1" source="vDZOlY3wyJ9qln-_VzCb-4" target="vDZOlY3wyJ9qln-_VzCb-156">
          <mxGeometry relative="1" as="geometry" />
        </mxCell>
        <mxCell id="vDZOlY3wyJ9qln-_VzCb-4" value="Login Screen" style="whiteSpace=wrap;html=1;fillColor=#fff2cc;strokeColor=#d6b656;strokeWidth=2;fontSize=16;" vertex="1" parent="1">
          <mxGeometry x="550" y="220" width="120" height="60" as="geometry" />
        </mxCell>
        <mxCell id="vDZOlY3wyJ9qln-_VzCb-159" value="" style="edgeStyle=orthogonalEdgeStyle;rounded=0;orthogonalLoop=1;jettySize=auto;html=1;" edge="1" parent="1" source="vDZOlY3wyJ9qln-_VzCb-156" target="vDZOlY3wyJ9qln-_VzCb-158">
          <mxGeometry relative="1" as="geometry" />
        </mxCell>
        <mxCell id="vDZOlY3wyJ9qln-_VzCb-161" value="" style="edgeStyle=orthogonalEdgeStyle;rounded=0;orthogonalLoop=1;jettySize=auto;html=1;" edge="1" parent="1" source="vDZOlY3wyJ9qln-_VzCb-156" target="vDZOlY3wyJ9qln-_VzCb-160">
          <mxGeometry relative="1" as="geometry" />
        </mxCell>
        <mxCell id="vDZOlY3wyJ9qln-_VzCb-156" value="Is user Registered?" style="rhombus;whiteSpace=wrap;html=1;fontSize=16;fillColor=#f8cecc;strokeColor=#b85450;strokeWidth=2;" vertex="1" parent="1">
          <mxGeometry x="545" y="320" width="130" height="130" as="geometry" />
        </mxCell>
        <mxCell id="vDZOlY3wyJ9qln-_VzCb-180" style="edgeStyle=orthogonalEdgeStyle;rounded=0;orthogonalLoop=1;jettySize=auto;html=1;" edge="1" parent="1" source="vDZOlY3wyJ9qln-_VzCb-158" target="vDZOlY3wyJ9qln-_VzCb-178">
          <mxGeometry relative="1" as="geometry">
            <Array as="points">
              <mxPoint x="360" y="1020" />
              <mxPoint x="645" y="1020" />
            </Array>
          </mxGeometry>
        </mxCell>
        <mxCell id="vDZOlY3wyJ9qln-_VzCb-158" value="Login details" style="whiteSpace=wrap;html=1;fontSize=16;fillColor=#fff2cc;strokeColor=#d6b656;strokeWidth=2;" vertex="1" parent="1">
          <mxGeometry x="300" y="510" width="120" height="60" as="geometry" />
        </mxCell>
        <mxCell id="vDZOlY3wyJ9qln-_VzCb-165" value="" style="edgeStyle=orthogonalEdgeStyle;rounded=0;orthogonalLoop=1;jettySize=auto;html=1;" edge="1" parent="1" source="vDZOlY3wyJ9qln-_VzCb-160" target="vDZOlY3wyJ9qln-_VzCb-164">
          <mxGeometry relative="1" as="geometry" />
        </mxCell>
        <mxCell id="vDZOlY3wyJ9qln-_VzCb-160" value="Signup page" style="whiteSpace=wrap;html=1;fontSize=16;fillColor=#fff2cc;strokeColor=#d6b656;strokeWidth=2;" vertex="1" parent="1">
          <mxGeometry x="790" y="500" width="120" height="60" as="geometry" />
        </mxCell>
        <mxCell id="vDZOlY3wyJ9qln-_VzCb-162" value="Yes" style="text;html=1;align=center;verticalAlign=middle;resizable=0;points=[];autosize=1;strokeColor=none;fillColor=none;" vertex="1" parent="1">
          <mxGeometry x="410" y="338" width="40" height="30" as="geometry" />
        </mxCell>
        <mxCell id="vDZOlY3wyJ9qln-_VzCb-163" value="No" style="text;html=1;align=center;verticalAlign=middle;resizable=0;points=[];autosize=1;strokeColor=none;fillColor=none;" vertex="1" parent="1">
          <mxGeometry x="730" y="338" width="40" height="30" as="geometry" />
        </mxCell>
        <mxCell id="vDZOlY3wyJ9qln-_VzCb-167" value="" style="edgeStyle=orthogonalEdgeStyle;rounded=0;orthogonalLoop=1;jettySize=auto;html=1;" edge="1" parent="1" source="vDZOlY3wyJ9qln-_VzCb-164" target="vDZOlY3wyJ9qln-_VzCb-166">
          <mxGeometry relative="1" as="geometry" />
        </mxCell>
        <mxCell id="vDZOlY3wyJ9qln-_VzCb-164" value="Complete signup process" style="whiteSpace=wrap;html=1;fontSize=16;fillColor=#fff2cc;strokeColor=#d6b656;strokeWidth=2;" vertex="1" parent="1">
          <mxGeometry x="790" y="610" width="120" height="60" as="geometry" />
        </mxCell>
        <mxCell id="vDZOlY3wyJ9qln-_VzCb-169" value="" style="edgeStyle=orthogonalEdgeStyle;rounded=0;orthogonalLoop=1;jettySize=auto;html=1;" edge="1" parent="1" source="vDZOlY3wyJ9qln-_VzCb-166" target="vDZOlY3wyJ9qln-_VzCb-168">
          <mxGeometry relative="1" as="geometry" />
        </mxCell>
        <mxCell id="vDZOlY3wyJ9qln-_VzCb-171" value="" style="edgeStyle=orthogonalEdgeStyle;rounded=0;orthogonalLoop=1;jettySize=auto;html=1;" edge="1" parent="1" source="vDZOlY3wyJ9qln-_VzCb-166" target="vDZOlY3wyJ9qln-_VzCb-170">
          <mxGeometry relative="1" as="geometry" />
        </mxCell>
        <mxCell id="vDZOlY3wyJ9qln-_VzCb-166" value="Are you Brand Owner?" style="rhombus;whiteSpace=wrap;html=1;fontSize=16;fillColor=#f8cecc;strokeColor=#b85450;strokeWidth=2;" vertex="1" parent="1">
          <mxGeometry x="570" y="677" width="150" height="150" as="geometry" />
        </mxCell>
        <mxCell id="vDZOlY3wyJ9qln-_VzCb-175" value="" style="edgeStyle=orthogonalEdgeStyle;rounded=0;orthogonalLoop=1;jettySize=auto;html=1;" edge="1" parent="1" source="vDZOlY3wyJ9qln-_VzCb-168" target="vDZOlY3wyJ9qln-_VzCb-174">
          <mxGeometry relative="1" as="geometry" />
        </mxCell>
        <mxCell id="vDZOlY3wyJ9qln-_VzCb-168" value="Brand owner details" style="whiteSpace=wrap;html=1;fontSize=16;fillColor=#fff2cc;strokeColor=#d6b656;strokeWidth=2;" vertex="1" parent="1">
          <mxGeometry x="430" y="850" width="120" height="60" as="geometry" />
        </mxCell>
        <mxCell id="vDZOlY3wyJ9qln-_VzCb-177" value="" style="edgeStyle=orthogonalEdgeStyle;rounded=0;orthogonalLoop=1;jettySize=auto;html=1;entryX=0.5;entryY=0;entryDx=0;entryDy=0;" edge="1" parent="1" source="vDZOlY3wyJ9qln-_VzCb-170" target="vDZOlY3wyJ9qln-_VzCb-174">
          <mxGeometry relative="1" as="geometry">
            <mxPoint x="790" y="1040" as="targetPoint" />
          </mxGeometry>
        </mxCell>
        <mxCell id="vDZOlY3wyJ9qln-_VzCb-170" value="Influencor details" style="whiteSpace=wrap;html=1;fontSize=16;fillColor=#fff2cc;strokeColor=#d6b656;strokeWidth=2;" vertex="1" parent="1">
          <mxGeometry x="790" y="850" width="120" height="60" as="geometry" />
        </mxCell>
        <mxCell id="vDZOlY3wyJ9qln-_VzCb-172" value="Yes" style="text;html=1;align=center;verticalAlign=middle;resizable=0;points=[];autosize=1;strokeColor=none;fillColor=none;" vertex="1" parent="1">
          <mxGeometry x="520" y="770" width="40" height="30" as="geometry" />
        </mxCell>
        <mxCell id="vDZOlY3wyJ9qln-_VzCb-173" value="No" style="text;html=1;align=center;verticalAlign=middle;resizable=0;points=[];autosize=1;strokeColor=none;fillColor=none;" vertex="1" parent="1">
          <mxGeometry x="740" y="770" width="40" height="30" as="geometry" />
        </mxCell>
        <mxCell id="vDZOlY3wyJ9qln-_VzCb-179" value="" style="edgeStyle=orthogonalEdgeStyle;rounded=0;orthogonalLoop=1;jettySize=auto;html=1;" edge="1" parent="1" source="vDZOlY3wyJ9qln-_VzCb-174" target="vDZOlY3wyJ9qln-_VzCb-178">
          <mxGeometry relative="1" as="geometry" />
        </mxCell>
        <mxCell id="vDZOlY3wyJ9qln-_VzCb-174" value="Complete profile setup" style="whiteSpace=wrap;html=1;fontSize=16;fillColor=#fff2cc;strokeColor=#d6b656;strokeWidth=2;" vertex="1" parent="1">
          <mxGeometry x="585" y="940" width="120" height="60" as="geometry" />
        </mxCell>
        <mxCell id="vDZOlY3wyJ9qln-_VzCb-182" value="" style="edgeStyle=orthogonalEdgeStyle;rounded=0;orthogonalLoop=1;jettySize=auto;html=1;" edge="1" parent="1" source="vDZOlY3wyJ9qln-_VzCb-178" target="vDZOlY3wyJ9qln-_VzCb-181">
          <mxGeometry relative="1" as="geometry" />
        </mxCell>
        <mxCell id="vDZOlY3wyJ9qln-_VzCb-178" value="Homepage" style="whiteSpace=wrap;html=1;fontSize=16;fillColor=#fff2cc;strokeColor=#d6b656;strokeWidth=2;" vertex="1" parent="1">
          <mxGeometry x="585" y="1050" width="120" height="60" as="geometry" />
        </mxCell>
        <mxCell id="vDZOlY3wyJ9qln-_VzCb-184" value="" style="edgeStyle=orthogonalEdgeStyle;rounded=0;orthogonalLoop=1;jettySize=auto;html=1;" edge="1" parent="1" source="vDZOlY3wyJ9qln-_VzCb-181" target="vDZOlY3wyJ9qln-_VzCb-183">
          <mxGeometry relative="1" as="geometry" />
        </mxCell>
        <mxCell id="vDZOlY3wyJ9qln-_VzCb-186" value="" style="edgeStyle=orthogonalEdgeStyle;rounded=0;orthogonalLoop=1;jettySize=auto;html=1;" edge="1" parent="1" source="vDZOlY3wyJ9qln-_VzCb-181" target="vDZOlY3wyJ9qln-_VzCb-185">
          <mxGeometry relative="1" as="geometry" />
        </mxCell>
        <mxCell id="vDZOlY3wyJ9qln-_VzCb-181" value="&lt;span style=&quot;color: rgb(26, 26, 26);&quot;&gt;Is user a Brand Owne&lt;span class=&quot;ql-cursor&quot;&gt;﻿&lt;/span&gt;r?&lt;/span&gt;" style="rhombus;whiteSpace=wrap;html=1;fontSize=16;fillColor=#f8cecc;strokeColor=#b85450;strokeWidth=2;" vertex="1" parent="1">
          <mxGeometry x="572.5" y="1176" width="145" height="144" as="geometry" />
        </mxCell>
        <mxCell id="vDZOlY3wyJ9qln-_VzCb-190" value="" style="edgeStyle=orthogonalEdgeStyle;rounded=0;orthogonalLoop=1;jettySize=auto;html=1;" edge="1" parent="1" source="vDZOlY3wyJ9qln-_VzCb-183" target="vDZOlY3wyJ9qln-_VzCb-189">
          <mxGeometry relative="1" as="geometry" />
        </mxCell>
        <mxCell id="vDZOlY3wyJ9qln-_VzCb-199" value="" style="edgeStyle=orthogonalEdgeStyle;rounded=0;orthogonalLoop=1;jettySize=auto;html=1;" edge="1" parent="1" source="vDZOlY3wyJ9qln-_VzCb-183" target="vDZOlY3wyJ9qln-_VzCb-198">
          <mxGeometry relative="1" as="geometry" />
        </mxCell>
        <mxCell id="vDZOlY3wyJ9qln-_VzCb-226" value="" style="edgeStyle=orthogonalEdgeStyle;rounded=0;orthogonalLoop=1;jettySize=auto;html=1;" edge="1" parent="1" source="vDZOlY3wyJ9qln-_VzCb-183" target="vDZOlY3wyJ9qln-_VzCb-225">
          <mxGeometry relative="1" as="geometry" />
        </mxCell>
        <mxCell id="vDZOlY3wyJ9qln-_VzCb-235" style="edgeStyle=orthogonalEdgeStyle;rounded=0;orthogonalLoop=1;jettySize=auto;html=1;entryX=0.5;entryY=0;entryDx=0;entryDy=0;" edge="1" parent="1" source="vDZOlY3wyJ9qln-_VzCb-183" target="vDZOlY3wyJ9qln-_VzCb-206">
          <mxGeometry relative="1" as="geometry">
            <Array as="points">
              <mxPoint x="960" y="1400" />
            </Array>
          </mxGeometry>
        </mxCell>
        <mxCell id="vDZOlY3wyJ9qln-_VzCb-183" value="Homepage" style="whiteSpace=wrap;html=1;fontSize=16;fillColor=#fff2cc;strokeColor=#d6b656;strokeWidth=2;" vertex="1" parent="1">
          <mxGeometry x="250" y="1370" width="120" height="60" as="geometry" />
        </mxCell>
        <mxCell id="vDZOlY3wyJ9qln-_VzCb-207" value="" style="edgeStyle=orthogonalEdgeStyle;rounded=0;orthogonalLoop=1;jettySize=auto;html=1;" edge="1" parent="1" source="vDZOlY3wyJ9qln-_VzCb-185" target="vDZOlY3wyJ9qln-_VzCb-206">
          <mxGeometry relative="1" as="geometry" />
        </mxCell>
        <mxCell id="vDZOlY3wyJ9qln-_VzCb-233" style="edgeStyle=orthogonalEdgeStyle;rounded=0;orthogonalLoop=1;jettySize=auto;html=1;entryX=1;entryY=0.25;entryDx=0;entryDy=0;" edge="1" parent="1" source="vDZOlY3wyJ9qln-_VzCb-185" target="vDZOlY3wyJ9qln-_VzCb-198">
          <mxGeometry relative="1" as="geometry" />
        </mxCell>
        <mxCell id="vDZOlY3wyJ9qln-_VzCb-234" style="edgeStyle=orthogonalEdgeStyle;rounded=0;orthogonalLoop=1;jettySize=auto;html=1;entryX=1;entryY=0.25;entryDx=0;entryDy=0;" edge="1" parent="1" source="vDZOlY3wyJ9qln-_VzCb-185" target="vDZOlY3wyJ9qln-_VzCb-225">
          <mxGeometry relative="1" as="geometry" />
        </mxCell>
        <mxCell id="vDZOlY3wyJ9qln-_VzCb-185" value="Homepage" style="whiteSpace=wrap;html=1;fontSize=16;fillColor=#fff2cc;strokeColor=#d6b656;strokeWidth=2;" vertex="1" parent="1">
          <mxGeometry x="900" y="1330" width="120" height="60" as="geometry" />
        </mxCell>
        <mxCell id="vDZOlY3wyJ9qln-_VzCb-187" value="yes" style="text;html=1;align=center;verticalAlign=middle;resizable=0;points=[];autosize=1;strokeColor=none;fillColor=none;" vertex="1" parent="1">
          <mxGeometry x="480" y="1198" width="40" height="30" as="geometry" />
        </mxCell>
        <mxCell id="vDZOlY3wyJ9qln-_VzCb-188" value="No" style="text;html=1;align=center;verticalAlign=middle;resizable=0;points=[];autosize=1;strokeColor=none;fillColor=none;" vertex="1" parent="1">
          <mxGeometry x="770" y="1198" width="40" height="30" as="geometry" />
        </mxCell>
        <mxCell id="vDZOlY3wyJ9qln-_VzCb-192" value="" style="edgeStyle=orthogonalEdgeStyle;rounded=0;orthogonalLoop=1;jettySize=auto;html=1;" edge="1" parent="1" source="vDZOlY3wyJ9qln-_VzCb-189" target="vDZOlY3wyJ9qln-_VzCb-191">
          <mxGeometry relative="1" as="geometry" />
        </mxCell>
        <mxCell id="vDZOlY3wyJ9qln-_VzCb-194" value="" style="edgeStyle=orthogonalEdgeStyle;rounded=0;orthogonalLoop=1;jettySize=auto;html=1;" edge="1" parent="1" source="vDZOlY3wyJ9qln-_VzCb-189" target="vDZOlY3wyJ9qln-_VzCb-193">
          <mxGeometry relative="1" as="geometry" />
        </mxCell>
        <mxCell id="vDZOlY3wyJ9qln-_VzCb-196" value="" style="edgeStyle=orthogonalEdgeStyle;rounded=0;orthogonalLoop=1;jettySize=auto;html=1;" edge="1" parent="1" source="vDZOlY3wyJ9qln-_VzCb-189" target="vDZOlY3wyJ9qln-_VzCb-195">
          <mxGeometry relative="1" as="geometry" />
        </mxCell>
        <mxCell id="vDZOlY3wyJ9qln-_VzCb-189" value="Shop" style="whiteSpace=wrap;html=1;fontSize=16;fillColor=#fff2cc;strokeColor=#d6b656;strokeWidth=2;" vertex="1" parent="1">
          <mxGeometry x="-560" y="1510" width="120" height="60" as="geometry" />
        </mxCell>
        <mxCell id="vDZOlY3wyJ9qln-_VzCb-191" value="View product" style="whiteSpace=wrap;html=1;fontSize=16;fillColor=#fff2cc;strokeColor=#d6b656;strokeWidth=2;" vertex="1" parent="1">
          <mxGeometry x="-740" y="1640" width="120" height="60" as="geometry" />
        </mxCell>
        <mxCell id="vDZOlY3wyJ9qln-_VzCb-193" value="Delete Products" style="whiteSpace=wrap;html=1;fontSize=16;fillColor=#fff2cc;strokeColor=#d6b656;strokeWidth=2;" vertex="1" parent="1">
          <mxGeometry x="-400" y="1640" width="120" height="60" as="geometry" />
        </mxCell>
        <mxCell id="vDZOlY3wyJ9qln-_VzCb-195" value="Edit Product" style="whiteSpace=wrap;html=1;fontSize=16;fillColor=#fff2cc;strokeColor=#d6b656;strokeWidth=2;" vertex="1" parent="1">
          <mxGeometry x="-560" y="1650" width="120" height="60" as="geometry" />
        </mxCell>
        <mxCell id="vDZOlY3wyJ9qln-_VzCb-201" value="" style="edgeStyle=orthogonalEdgeStyle;rounded=0;orthogonalLoop=1;jettySize=auto;html=1;" edge="1" parent="1" source="vDZOlY3wyJ9qln-_VzCb-198" target="vDZOlY3wyJ9qln-_VzCb-200">
          <mxGeometry relative="1" as="geometry" />
        </mxCell>
        <mxCell id="vDZOlY3wyJ9qln-_VzCb-203" value="" style="edgeStyle=orthogonalEdgeStyle;rounded=0;orthogonalLoop=1;jettySize=auto;html=1;" edge="1" parent="1" source="vDZOlY3wyJ9qln-_VzCb-198" target="vDZOlY3wyJ9qln-_VzCb-202">
          <mxGeometry relative="1" as="geometry" />
        </mxCell>
        <mxCell id="vDZOlY3wyJ9qln-_VzCb-205" value="" style="edgeStyle=orthogonalEdgeStyle;rounded=0;orthogonalLoop=1;jettySize=auto;html=1;" edge="1" parent="1" source="vDZOlY3wyJ9qln-_VzCb-198" target="vDZOlY3wyJ9qln-_VzCb-204">
          <mxGeometry relative="1" as="geometry" />
        </mxCell>
        <mxCell id="vDZOlY3wyJ9qln-_VzCb-198" value="Schdule menu" style="whiteSpace=wrap;html=1;fontSize=16;fillColor=#fff2cc;strokeColor=#d6b656;strokeWidth=2;" vertex="1" parent="1">
          <mxGeometry x="-160" y="1790" width="120" height="60" as="geometry" />
        </mxCell>
        <mxCell id="vDZOlY3wyJ9qln-_VzCb-200" value="Post Schedu;ing" style="whiteSpace=wrap;html=1;fontSize=16;fillColor=#fff2cc;strokeColor=#d6b656;strokeWidth=2;" vertex="1" parent="1">
          <mxGeometry x="-430" y="1950" width="120" height="60" as="geometry" />
        </mxCell>
        <mxCell id="vDZOlY3wyJ9qln-_VzCb-202" value="Message Scheduling" style="whiteSpace=wrap;html=1;fontSize=16;fillColor=#fff2cc;strokeColor=#d6b656;strokeWidth=2;" vertex="1" parent="1">
          <mxGeometry x="-160" y="1950" width="120" height="60" as="geometry" />
        </mxCell>
        <mxCell id="vDZOlY3wyJ9qln-_VzCb-204" value="Chat Section" style="whiteSpace=wrap;html=1;fontSize=16;fillColor=#fff2cc;strokeColor=#d6b656;strokeWidth=2;" vertex="1" parent="1">
          <mxGeometry x="90" y="1950" width="120" height="60" as="geometry" />
        </mxCell>
        <mxCell id="vDZOlY3wyJ9qln-_VzCb-209" value="" style="edgeStyle=orthogonalEdgeStyle;rounded=0;orthogonalLoop=1;jettySize=auto;html=1;" edge="1" parent="1" source="vDZOlY3wyJ9qln-_VzCb-206" target="vDZOlY3wyJ9qln-_VzCb-208">
          <mxGeometry relative="1" as="geometry" />
        </mxCell>
        <mxCell id="vDZOlY3wyJ9qln-_VzCb-211" value="" style="edgeStyle=orthogonalEdgeStyle;rounded=0;orthogonalLoop=1;jettySize=auto;html=1;" edge="1" parent="1" source="vDZOlY3wyJ9qln-_VzCb-206" target="vDZOlY3wyJ9qln-_VzCb-210">
          <mxGeometry relative="1" as="geometry" />
        </mxCell>
        <mxCell id="vDZOlY3wyJ9qln-_VzCb-213" value="" style="edgeStyle=orthogonalEdgeStyle;rounded=0;orthogonalLoop=1;jettySize=auto;html=1;" edge="1" parent="1" source="vDZOlY3wyJ9qln-_VzCb-206" target="vDZOlY3wyJ9qln-_VzCb-212">
          <mxGeometry relative="1" as="geometry" />
        </mxCell>
        <mxCell id="vDZOlY3wyJ9qln-_VzCb-206" value="Profile Menu" style="whiteSpace=wrap;html=1;fontSize=16;fillColor=#fff2cc;strokeColor=#d6b656;strokeWidth=2;" vertex="1" parent="1">
          <mxGeometry x="900" y="1500" width="120" height="60" as="geometry" />
        </mxCell>
        <mxCell id="vDZOlY3wyJ9qln-_VzCb-208" value="Portfolio Tab" style="whiteSpace=wrap;html=1;fontSize=16;fillColor=#fff2cc;strokeColor=#d6b656;strokeWidth=2;" vertex="1" parent="1">
          <mxGeometry x="630" y="1640" width="120" height="60" as="geometry" />
        </mxCell>
        <mxCell id="vDZOlY3wyJ9qln-_VzCb-210" value="Setting Tab" style="whiteSpace=wrap;html=1;fontSize=16;fillColor=#fff2cc;strokeColor=#d6b656;strokeWidth=2;" vertex="1" parent="1">
          <mxGeometry x="900" y="1640" width="120" height="60" as="geometry" />
        </mxCell>
        <mxCell id="vDZOlY3wyJ9qln-_VzCb-217" value="" style="edgeStyle=orthogonalEdgeStyle;rounded=0;orthogonalLoop=1;jettySize=auto;html=1;" edge="1" parent="1" source="vDZOlY3wyJ9qln-_VzCb-212" target="vDZOlY3wyJ9qln-_VzCb-216">
          <mxGeometry relative="1" as="geometry" />
        </mxCell>
        <mxCell id="vDZOlY3wyJ9qln-_VzCb-212" value="Analytics &amp;amp; Report tab" style="whiteSpace=wrap;html=1;fontSize=16;fillColor=#fff2cc;strokeColor=#d6b656;strokeWidth=2;" vertex="1" parent="1">
          <mxGeometry x="1150" y="1640" width="120" height="60" as="geometry" />
        </mxCell>
        <mxCell id="vDZOlY3wyJ9qln-_VzCb-219" value="" style="edgeStyle=orthogonalEdgeStyle;rounded=0;orthogonalLoop=1;jettySize=auto;html=1;" edge="1" parent="1" source="vDZOlY3wyJ9qln-_VzCb-216">
          <mxGeometry relative="1" as="geometry">
            <mxPoint x="1210" y="1930" as="targetPoint" />
          </mxGeometry>
        </mxCell>
        <mxCell id="vDZOlY3wyJ9qln-_VzCb-216" value="Exit?" style="rhombus;whiteSpace=wrap;html=1;fontSize=16;fillColor=#f8cecc;strokeColor=#b85450;strokeWidth=2;" vertex="1" parent="1">
          <mxGeometry x="1170" y="1770" width="80" height="80" as="geometry" />
        </mxCell>
        <mxCell id="vDZOlY3wyJ9qln-_VzCb-223" value="LogOut" style="strokeWidth=2;html=1;shape=mxgraph.flowchart.start_1;whiteSpace=wrap;fillColor=#e1d5e7;strokeColor=#9673a6;" vertex="1" parent="1">
          <mxGeometry x="1160" y="1930" width="100" height="60" as="geometry" />
        </mxCell>
        <mxCell id="vDZOlY3wyJ9qln-_VzCb-228" value="" style="edgeStyle=orthogonalEdgeStyle;rounded=0;orthogonalLoop=1;jettySize=auto;html=1;" edge="1" parent="1" source="vDZOlY3wyJ9qln-_VzCb-225" target="vDZOlY3wyJ9qln-_VzCb-227">
          <mxGeometry relative="1" as="geometry" />
        </mxCell>
        <mxCell id="vDZOlY3wyJ9qln-_VzCb-230" value="" style="edgeStyle=orthogonalEdgeStyle;rounded=0;orthogonalLoop=1;jettySize=auto;html=1;" edge="1" parent="1" source="vDZOlY3wyJ9qln-_VzCb-225" target="vDZOlY3wyJ9qln-_VzCb-229">
          <mxGeometry relative="1" as="geometry" />
        </mxCell>
        <mxCell id="vDZOlY3wyJ9qln-_VzCb-232" value="" style="edgeStyle=orthogonalEdgeStyle;rounded=0;orthogonalLoop=1;jettySize=auto;html=1;" edge="1" parent="1" source="vDZOlY3wyJ9qln-_VzCb-225" target="vDZOlY3wyJ9qln-_VzCb-231">
          <mxGeometry relative="1" as="geometry" />
        </mxCell>
        <mxCell id="vDZOlY3wyJ9qln-_VzCb-225" value="Add Post" style="whiteSpace=wrap;html=1;fontSize=16;fillColor=#fff2cc;strokeColor=#d6b656;strokeWidth=2;" vertex="1" parent="1">
          <mxGeometry x="250" y="1510" width="120" height="60" as="geometry" />
        </mxCell>
        <mxCell id="vDZOlY3wyJ9qln-_VzCb-227" value="Create Post" style="whiteSpace=wrap;html=1;fontSize=16;fillColor=#fff2cc;strokeColor=#d6b656;strokeWidth=2;" vertex="1" parent="1">
          <mxGeometry x="50" y="1654" width="120" height="60" as="geometry" />
        </mxCell>
        <mxCell id="vDZOlY3wyJ9qln-_VzCb-229" value="Create Message" style="whiteSpace=wrap;html=1;fontSize=16;fillColor=#fff2cc;strokeColor=#d6b656;strokeWidth=2;" vertex="1" parent="1">
          <mxGeometry x="250" y="1650" width="120" height="60" as="geometry" />
        </mxCell>
        <mxCell id="vDZOlY3wyJ9qln-_VzCb-231" value="Create Notification Message" style="whiteSpace=wrap;html=1;fontSize=16;fillColor=#fff2cc;strokeColor=#d6b656;strokeWidth=2;" vertex="1" parent="1">
          <mxGeometry x="480" y="1650" width="120" height="60" as="geometry" />
        </mxCell>
      </root>
    </mxGraphModel>
  </diagram>
</mxfile>
